<svg xmlns="http://www.w3.org/2000/svg" viewBox="0 0 32 30" shape-rendering="crispEdges" width="256" height="240">
  

  
  
  <rect x="6" y="2" width="1" height="1" fill="#2B1A0E"></rect>
  <rect x="6" y="3" width="2" height="1" fill="#2B1A0E"></rect>
  <rect x="7" y="3" width="1" height="1" fill="#C97039"></rect>
  <rect x="6" y="4" width="3" height="1" fill="#2B1A0E"></rect>
  <rect x="7" y="4" width="2" height="1" fill="#E07088"></rect>
  <rect x="6" y="5" width="4" height="1" fill="#2B1A0E"></rect>
  <rect x="7" y="5" width="3" height="1" fill="#E07088"></rect>
  <rect x="6" y="6" width="5" height="1" fill="#2B1A0E"></rect>
  <rect x="7" y="6" width="3" height="1" fill="#C97039"></rect>
  <rect x="10" y="6" width="1" height="1" fill="#2B1A0E"></rect>

  
  <rect x="25" y="2" width="1" height="1" fill="#2B1A0E"></rect>
  <rect x="24" y="3" width="2" height="1" fill="#2B1A0E"></rect>
  <rect x="24" y="3" width="1" height="1" fill="#C97039"></rect>
  <rect x="23" y="4" width="3" height="1" fill="#2B1A0E"></rect>
  <rect x="23" y="4" width="2" height="1" fill="#E07088"></rect>
  <rect x="22" y="5" width="4" height="1" fill="#2B1A0E"></rect>
  <rect x="22" y="5" width="3" height="1" fill="#E07088"></rect>
  <rect x="21" y="6" width="5" height="1" fill="#2B1A0E"></rect>
  <rect x="22" y="6" width="3" height="1" fill="#C97039"></rect>
  <rect x="21" y="6" width="1" height="1" fill="#2B1A0E"></rect>

  
  <rect x="11" y="3" width="10" height="1" fill="#2B1A0E"></rect>
  <rect x="10" y="4" width="12" height="1" fill="#2B1A0E"></rect>

  
  <rect x="11" y="4" width="10" height="1" fill="#C97039"></rect>
  
  <rect x="13" y="4" width="1" height="1" fill="#8B4520"></rect>
  <rect x="15" y="4" width="2" height="1" fill="#8B4520"></rect>
  <rect x="18" y="4" width="1" height="1" fill="#8B4520"></rect>

  
  
  <rect x="5" y="5" width="1" height="6" fill="#2B1A0E"></rect>
  
  <rect x="26" y="5" width="1" height="6" fill="#2B1A0E"></rect>

  
  <rect x="6" y="5" width="20" height="1" fill="#C97039"></rect>
  <rect x="13" y="5" width="1" height="1" fill="#8B4520"></rect>
  <rect x="15" y="5" width="2" height="1" fill="#8B4520"></rect>
  <rect x="18" y="5" width="1" height="1" fill="#8B4520"></rect>

  
  <rect x="6" y="6" width="20" height="1" fill="#C97039"></rect>
  <rect x="11" y="6" width="1" height="1" fill="#8B4520"></rect>
  <rect x="14" y="6" width="1" height="1" fill="#8B4520"></rect>
  <rect x="17" y="6" width="1" height="1" fill="#8B4520"></rect>
  <rect x="20" y="6" width="1" height="1" fill="#8B4520"></rect>

  
  <rect x="6" y="7" width="20" height="1" fill="#E89954"></rect>
  <rect x="10" y="7" width="2" height="1" fill="#8B4520"></rect>
  <rect x="14" y="7" width="1" height="1" fill="#8B4520"></rect>
  <rect x="17" y="7" width="1" height="1" fill="#8B4520"></rect>
  <rect x="20" y="7" width="2" height="1" fill="#8B4520"></rect>

  
  <rect x="6" y="8" width="20" height="1" fill="#E89954"></rect>
  
  <rect x="9" y="8" width="3" height="1" fill="#1A0E08"></rect>
  <rect x="9" y="8" width="1" height="1" fill="#FFFAF0"></rect>
  
  <rect x="20" y="8" width="3" height="1" fill="#1A0E08"></rect>
  <rect x="20" y="8" width="1" height="1" fill="#FFFAF0"></rect>

  
  <rect x="6" y="9" width="20" height="1" fill="#E89954"></rect>
  <rect x="9" y="9" width="3" height="1" fill="#1A0E08"></rect>
  <rect x="20" y="9" width="3" height="1" fill="#1A0E08"></rect>

  
  <rect x="6" y="10" width="20" height="1" fill="#E89954"></rect>
  
  <rect x="12" y="10" width="8" height="1" fill="#F5E6C8"></rect>

  
  <rect x="5" y="11" width="1" height="1" fill="#2B1A0E"></rect>
  <rect x="26" y="11" width="1" height="1" fill="#2B1A0E"></rect>
  <rect x="6" y="11" width="20" height="1" fill="#E89954"></rect>
  <rect x="11" y="11" width="10" height="1" fill="#F5E6C8"></rect>
  <rect x="15" y="11" width="2" height="1" fill="#E07088"></rect>

  
  <rect x="5" y="12" width="1" height="1" fill="#2B1A0E"></rect>
  <rect x="26" y="12" width="1" height="1" fill="#2B1A0E"></rect>
  <rect x="6" y="12" width="20" height="1" fill="#E89954"></rect>
  <rect x="11" y="12" width="10" height="1" fill="#F5E6C8"></rect>
  
  <rect x="14" y="12" width="1" height="1" fill="#2B1A0E"></rect>
  <rect x="17" y="12" width="1" height="1" fill="#2B1A0E"></rect>
  <rect x="15" y="12" width="2" height="1" fill="#B0405A"></rect>

  
  <rect x="6" y="13" width="1" height="1" fill="#2B1A0E"></rect>
  <rect x="25" y="13" width="1" height="1" fill="#2B1A0E"></rect>
  <rect x="7" y="13" width="18" height="1" fill="#E89954"></rect>
  <rect x="12" y="13" width="8" height="1" fill="#F5E6C8"></rect>

  
  <rect x="6" y="14" width="1" height="1" fill="#2B1A0E"></rect>
  <rect x="25" y="14" width="1" height="1" fill="#2B1A0E"></rect>
  <rect x="7" y="14" width="18" height="1" fill="#C97039"></rect>
  <rect x="13" y="14" width="6" height="1" fill="#F5E6C8"></rect>

  
  
  <rect x="5" y="15" width="1" height="1" fill="#2B1A0E"></rect>
  <rect x="26" y="15" width="1" height="1" fill="#2B1A0E"></rect>
  <rect x="6" y="15" width="20" height="1" fill="#C97039"></rect>
  <rect x="12" y="15" width="8" height="1" fill="#F5E6C8"></rect>
  
  <rect x="8" y="15" width="1" height="1" fill="#8B4520"></rect>
  <rect x="23" y="15" width="1" height="1" fill="#8B4520"></rect>

  
  <rect x="5" y="16" width="1" height="1" fill="#2B1A0E"></rect>
  <rect x="26" y="16" width="1" height="1" fill="#2B1A0E"></rect>
  <rect x="6" y="16" width="20" height="1" fill="#C97039"></rect>
  <rect x="11" y="16" width="10" height="1" fill="#F5E6C8"></rect>
  <rect x="8" y="16" width="2" height="1" fill="#8B4520"></rect>
  <rect x="22" y="16" width="2" height="1" fill="#8B4520"></rect>

  
  <rect x="4" y="17" width="1" height="1" fill="#2B1A0E"></rect>
  <rect x="27" y="17" width="1" height="1" fill="#2B1A0E"></rect>
  <rect x="5" y="17" width="22" height="1" fill="#C97039"></rect>
  <rect x="11" y="17" width="10" height="1" fill="#F5E6C8"></rect>
  <rect x="6" y="17" width="1" height="1" fill="#8B4520"></rect>
  <rect x="25" y="17" width="1" height="1" fill="#8B4520"></rect>

  
  <rect x="4" y="18" width="1" height="1" fill="#2B1A0E"></rect>
  <rect x="27" y="18" width="1" height="1" fill="#2B1A0E"></rect>
  <rect x="5" y="18" width="22" height="1" fill="#C97039"></rect>
  <rect x="10" y="18" width="12" height="1" fill="#F5E6C8"></rect>
  <rect x="6" y="18" width="2" height="1" fill="#8B4520"></rect>
  <rect x="24" y="18" width="2" height="1" fill="#8B4520"></rect>

  
  <rect x="4" y="19" width="1" height="1" fill="#2B1A0E"></rect>
  <rect x="27" y="19" width="1" height="1" fill="#2B1A0E"></rect>
  <rect x="5" y="19" width="22" height="1" fill="#C97039"></rect>
  <rect x="10" y="19" width="12" height="1" fill="#F5E6C8"></rect>
  <rect x="14" y="19" width="4" height="1" fill="#E89954"></rect>

  
  <rect x="4" y="20" width="1" height="1" fill="#2B1A0E"></rect>
  <rect x="27" y="20" width="1" height="1" fill="#2B1A0E"></rect>
  <rect x="5" y="20" width="22" height="1" fill="#C97039"></rect>
  <rect x="10" y="20" width="12" height="1" fill="#F5E6C8"></rect>

  
  <rect x="4" y="21" width="1" height="1" fill="#2B1A0E"></rect>
  <rect x="27" y="21" width="1" height="1" fill="#2B1A0E"></rect>
  <rect x="5" y="21" width="22" height="1" fill="#C97039"></rect>
  <rect x="10" y="21" width="12" height="1" fill="#F5E6C8"></rect>

  
  <rect x="5" y="22" width="1" height="1" fill="#2B1A0E"></rect>
  <rect x="26" y="22" width="1" height="1" fill="#2B1A0E"></rect>
  <rect x="6" y="22" width="20" height="1" fill="#C97039"></rect>
  <rect x="11" y="22" width="10" height="1" fill="#F5E6C8"></rect>

  
  <rect x="5" y="23" width="1" height="1" fill="#2B1A0E"></rect>
  <rect x="26" y="23" width="1" height="1" fill="#2B1A0E"></rect>
  <rect x="6" y="23" width="20" height="1" fill="#C97039"></rect>
  <rect x="12" y="23" width="8" height="1" fill="#F5E6C8"></rect>

  
  <rect x="5" y="24" width="2" height="1" fill="#2B1A0E"></rect>
  <rect x="11" y="24" width="2" height="1" fill="#2B1A0E"></rect>
  <rect x="14" y="24" width="2" height="1" fill="#2B1A0E"></rect>
  <rect x="19" y="24" width="2" height="1" fill="#2B1A0E"></rect>
  <rect x="25" y="24" width="2" height="1" fill="#2B1A0E"></rect>
  <rect x="7" y="24" width="4" height="1" fill="#C97039"></rect>
  <rect x="13" y="24" width="1" height="1" fill="#F5E6C8"></rect>
  <rect x="16" y="24" width="3" height="1" fill="#F5E6C8"></rect>
  <rect x="21" y="24" width="4" height="1" fill="#C97039"></rect>

  
  <rect x="5" y="25" width="1" height="1" fill="#2B1A0E"></rect>
  <rect x="11" y="25" width="1" height="1" fill="#2B1A0E"></rect>
  <rect x="14" y="25" width="1" height="1" fill="#2B1A0E"></rect>
  <rect x="20" y="25" width="1" height="1" fill="#2B1A0E"></rect>
  <rect x="26" y="25" width="1" height="1" fill="#2B1A0E"></rect>
  <rect x="6" y="25" width="5" height="1" fill="#FFFAF0"></rect>
  <rect x="12" y="25" width="2" height="1" fill="#FFFAF0"></rect>
  <rect x="15" y="25" width="5" height="1" fill="#FFFAF0"></rect>
  <rect x="21" y="25" width="5" height="1" fill="#FFFAF0"></rect>

  
  <rect x="5" y="26" width="6" height="1" fill="#2B1A0E"></rect>
  <rect x="14" y="26" width="6" height="1" fill="#2B1A0E"></rect>
  <rect x="20" y="26" width="7" height="1" fill="#2B1A0E"></rect>

  
  <rect x="27" y="20" width="1" height="1" fill="#2B1A0E"></rect>
  <rect x="28" y="19" width="1" height="3" fill="#2B1A0E"></rect>
  <rect x="29" y="16" width="1" height="3" fill="#2B1A0E"></rect>
  <rect x="29" y="13" width="2" height="3" fill="#2B1A0E"></rect>
  <rect x="28" y="13" width="1" height="1" fill="#2B1A0E"></rect>
  
  <rect x="27" y="21" width="1" height="1" fill="#C97039"></rect>
  <rect x="28" y="21" width="1" height="1" fill="#C97039"></rect>
  <rect x="29" y="17" width="1" height="2" fill="#C97039"></rect>
  <rect x="30" y="14" width="1" height="2" fill="#C97039"></rect>
  
  <rect x="29" y="15" width="1" height="1" fill="#8B4520"></rect>
  <rect x="29" y="18" width="1" height="1" fill="#8B4520"></rect>

  
  <rect x="6" y="27" width="3" height="1" fill="#C9A87A" opacity="0.7"></rect>
  <rect x="11" y="27" width="2" height="1" fill="#C9A87A" opacity="0.7"></rect>
  <rect x="15" y="27" width="6" height="1" fill="#C9A87A" opacity="0.7"></rect>
  <rect x="22" y="27" width="4" height="1" fill="#C9A87A" opacity="0.7"></rect>

  
  <g fill="#E89954">
    <rect x="2" y="9" width="1" height="1"></rect>
    <rect x="1" y="10" width="3" height="1"></rect>
    <rect x="2" y="11" width="1" height="1"></rect>

    <rect x="3" y="16" width="1" height="1"></rect>
    <rect x="2" y="17" width="3" height="1"></rect>
    <rect x="3" y="18" width="1" height="1"></rect>

    <rect x="29" y="9" width="1" height="1"></rect>
    <rect x="28" y="10" width="3" height="1"></rect>
    <rect x="29" y="11" width="1" height="1"></rect>
  </g>
</svg>